<svg id="line" height="512" viewBox="0 0 64 64" width="512" xmlns="http://www.w3.org/2000/svg"><path d="m27.938 49.07a9.022 9.022 0 0 1 3.051 6.43h10.011v-10.586l-7.707-7.707a1 1 0 0 1 1.414-1.414l6.293 6.293v-10.586a1 1 0 0 1 2 0v10.586l6.293-6.293a1 1 0 0 1 1.414 1.414l-7.707 7.707v10.586h10.018a9.118 9.118 0 0 1 3.032-6.419 21 21 0 1 0 -28.112-.011zm25.033-28.595a1 1 0 0 1 1.414-.037 17.839 17.839 0 0 1 5.615 13.062 1 1 0 0 1 -2 0 15.855 15.855 0 0 0 -4.991-11.611 1 1 0 0 1 -.038-1.414z" fill="#c4a2fc"/><path d="m31 57.5v2a3 3 0 0 0 3 3h16a3 3 0 0 0 3-3v-2z" fill="#c4a2fc"/><g fill="#151a6a"><path d="m48 1.5h-44a3 3 0 0 0 -3 3v28.5a3 3 0 0 0 3 3h17v6h-3a1 1 0 0 0 0 2h16a1 1 0 0 0 0-2h-3v-6h17a3 3 0 0 0 3-3v-28.5a3 3 0 0 0 -3-3zm-19 40.5h-6v-6h6zm20-9a1 1 0 0 1 -1 1h-44a1 1 0 0 1 -1-1v-3h46zm0-5h-46v-23.5a1 1 0 0 1 1-1h44a1 1 0 0 1 1 1z"/><path d="m36 6.75a4 4 0 0 0 -4 4 3.947 3.947 0 0 0 .567 2.019l-4.067 4.067-4.293-4.293a1 1 0 0 0 -1.414 0l-4.774 4.774a3.947 3.947 0 0 0 -2.019-.567 4 4 0 1 0 4 4 3.947 3.947 0 0 0 -.567-2.019l4.067-4.067 4.293 4.293a1 1 0 0 0 1.414 0l4.774-4.774a3.947 3.947 0 0 0 2.019.567 4 4 0 0 0 0-8zm-20 16a2 2 0 1 1 2-2 2 2 0 0 1 -2 2zm20-10a2 2 0 1 1 2-2 2 2 0 0 1 -2 2z"/></g></svg>