<svg id="line" height="512" viewBox="0 0 64 64" width="512" xmlns="http://www.w3.org/2000/svg"><g fill="#c4a2fc"><path d="m27 46h10v11h-10z"/><path d="m27 36h30v4h-30z"/><path d="m21 31v29a3 3 0 0 0 3 3h36a3 3 0 0 0 3-3v-29zm18 27a1 1 0 0 1 -1 1h-12a1 1 0 0 1 -1-1v-13a1 1 0 0 1 1-1h12a1 1 0 0 1 1 1zm19 1h-16a1 1 0 0 1 0-2h16a1 1 0 0 1 0 2zm0-4h-16a1 1 0 0 1 0-2h16a1 1 0 0 1 0 2zm0-4h-16a1 1 0 0 1 0-2h16a1 1 0 0 1 0 2zm0-4h-16a1 1 0 0 1 0-2h16a1 1 0 0 1 0 2zm1-6a1 1 0 0 1 -1 1h-32a1 1 0 0 1 -1-1v-6a1 1 0 0 1 1-1h32a1 1 0 0 1 1 1z"/><path d="m63 29v-5a3 3 0 0 0 -3-3h-36a3 3 0 0 0 -3 3v5zm-6-5h1a1 1 0 0 1 0 2h-1a1 1 0 0 1 0-2zm-5 0h1a1 1 0 0 1 0 2h-1a1 1 0 0 1 0-2zm-5 0h1a1 1 0 0 1 0 2h-1a1 1 0 0 1 0-2z"/></g><path d="m30 1h-26a3 3 0 0 0 -3 3v44a3 3 0 0 0 3 3h26a3 3 0 0 0 3-3v-44a3 3 0 0 0 -3-3zm-27 6h28v38h-28zm1-4h26a1 1 0 0 1 1 1v1h-28v-1a1 1 0 0 1 1-1zm26 46h-26a1 1 0 0 1 -1-1v-1h28v1a1 1 0 0 1 -1 1z" fill="#151a6a"/><path d="m17 32a10 10 0 1 0 -10-10 10.011 10.011 0 0 0 10 10zm-7.931-9h3.679a18 18 0 0 0 1.3 6.43 8.015 8.015 0 0 1 -4.979-6.43zm7.931-9c.635 0 2.068 2.379 2.253 7h-4.506c.185-4.621 1.618-7 2.253-7zm2.253 9c-.185 4.621-1.618 7-2.253 7s-2.068-2.379-2.253-7zm.7 6.43a18 18 0 0 0 1.3-6.43h3.679a8.014 8.014 0 0 1 -4.983 6.43zm4.978-8.43h-3.679a18 18 0 0 0 -1.3-6.43 8.014 8.014 0 0 1 4.979 6.43zm-10.88-6.43a18 18 0 0 0 -1.3 6.43h-3.682a8.015 8.015 0 0 1 4.982-6.43z" fill="#151a6a"/><path d="m24 34h-14a3 3 0 0 0 0 6h14a3 3 0 0 0 0-6zm0 4h-14a1 1 0 0 1 0-2h14a1 1 0 0 1 0 2z" fill="#151a6a"/></svg>