<svg id="line" height="512" viewBox="0 0 64 64" width="512" xmlns="http://www.w3.org/2000/svg"><path d="m56.817 41.8a18.276 18.276 0 0 0 0-7.6l4.819-3.966a1 1 0 0 0 .23-1.272l-4-6.928a1 1 0 0 0 -1.217-.436l-5.849 2.192a19.115 19.115 0 0 0 -6.577-3.808l-1.023-6.146a1 1 0 0 0 -.984-.836h-8a1 1 0 0 0 -.987.836l-1.024 6.146a19.074 19.074 0 0 0 -6.576 3.808l-5.847-2.19a1 1 0 0 0 -1.217.436l-4 6.928a1 1 0 0 0 .23 1.272l4.819 3.964a18.321 18.321 0 0 0 0 7.6l-4.814 3.964a1 1 0 0 0 -.23 1.272l4 6.928a1 1 0 0 0 1.217.436l5.847-2.19a19.073 19.073 0 0 0 6.576 3.809l1.024 6.145a1 1 0 0 0 .987.836h8a1 1 0 0 0 .986-.836l1.025-6.145a19.1 19.1 0 0 0 6.568-3.809l5.845 2.19a1 1 0 0 0 1.217-.436l4-6.928a1 1 0 0 0 -.23-1.272zm-18.601 5.2a9 9 0 1 1 9-9 9.01 9.01 0 0 1 -9 9z" fill="#c4a2fc"/><g fill="#151a6a"><path d="m49 1h-44a3 3 0 0 0 -3 3v36a3 3 0 0 0 3 3h44a3 3 0 0 0 3-3v-36a3 3 0 0 0 -3-3zm-44 2h44a1 1 0 0 1 1 1v5h-46v-5a1 1 0 0 1 1-1zm44 38h-44a1 1 0 0 1 -1-1v-29h46v29a1 1 0 0 1 -1 1z"/><path d="m7 7h1a1 1 0 0 0 0-2h-1a1 1 0 0 0 0 2z"/><path d="m12 7h1a1 1 0 0 0 0-2h-1a1 1 0 0 0 0 2z"/><path d="m17 7h1a1 1 0 0 0 0-2h-1a1 1 0 0 0 0 2z"/><path d="m35 7h12a1 1 0 0 0 0-2h-12a1 1 0 0 0 0 2z"/><path d="m11.293 24.707a1 1 0 0 0 1.414-1.414l-3.293-3.293 3.293-3.293a1 1 0 0 0 -1.414-1.414l-4 4a1 1 0 0 0 0 1.414z"/><path d="m20.293 24.707a1 1 0 0 0 1.414 0l4-4a1 1 0 0 0 0-1.414l-4-4a1 1 0 0 0 -1.414 1.414l3.293 3.293-3.293 3.293a1 1 0 0 0 0 1.414z"/><path d="m14.649 24.937a1 1 0 0 0 1.288-.585l3-8a1 1 0 0 0 -1.874-.7l-3 8a1 1 0 0 0 .586 1.285z"/><path d="m46 23h-11a1 1 0 0 0 0 2h11a1 1 0 0 0 0-2z"/><path d="m46 29h-23a1 1 0 0 0 0 2h23a1 1 0 0 0 0-2z"/><path d="m8 31h11a1 1 0 0 0 0-2h-11a1 1 0 0 0 0 2z"/><path d="m46 35h-11a1 1 0 0 0 0 2h11a1 1 0 0 0 0-2z"/><path d="m31 35h-23a1 1 0 0 0 0 2h23a1 1 0 0 0 0-2z"/></g></svg>