<?xml version="1.0" encoding="iso-8859-1"?>
<!-- Generator: Adobe Illustrator 19.0.0, SVG Export Plug-In . SVG Version: 6.00 Build 0)  -->
<svg version="1.1" id="Layer_1" xmlns="http://www.w3.org/2000/svg" xmlns:xlink="http://www.w3.org/1999/xlink" x="0px" y="0px"
	 viewBox="0 0 392.564 392.564" style="enable-background:new 0 0 392.564 392.564;" xml:space="preserve">
<g>
	<path style="fill:#FFFFFF;" d="M197.042,303.66c-62.836,0-113.713-50.941-113.713-113.713S134.271,76.169,197.042,76.169
		c30.061,0,57.277,11.766,77.576,30.772V31.563c0-5.301-4.331-9.632-9.632-9.632H86.691v54.044c0,6.012-4.848,10.925-10.925,10.925
		h-53.98v274.23c0,5.301,4.331,9.632,9.632,9.632h233.438c5.301,0,9.632-4.331,9.632-9.632v-67.362l-13.705-9.762
		C242.683,296.42,220.768,303.66,197.042,303.66z"/>
	<path style="fill:#FFFFFF;" d="M197.042,98.02c-50.683,0-91.927,41.244-91.927,91.927s41.244,91.927,91.927,91.927
		s91.927-41.244,91.927-91.927S247.725,98.02,197.042,98.02z"/>
	<polygon style="fill:#FFFFFF;" points="64.905,37.252 37.236,64.921 64.905,64.921 	"/>
</g>
<g>
	<path style="fill:#56ACE0;" d="M363.248,286.399l-64.453-45.964c-5.301,10.731-12.283,20.558-20.622,29.026l64.388,45.899
		c8.016,5.689,19.135,3.879,24.889-4.202l0,0C373.139,303.207,371.265,292.088,363.248,286.399z"/>
	<circle style="fill:#56ACE0;" cx="197.042" cy="189.947" r="71.176"/>
</g>
<g>
	<path style="fill:#194F82;" d="M170.02,207.789c6.335,0,11.572-2.521,15.58-7.564l8.275,8.598
		c-6.594,7.434-14.352,11.119-23.273,11.119c-8.921,0-16.291-2.78-22.109-8.404c-5.818-5.624-8.663-12.735-8.663-21.333
		c0-8.598,2.909-15.774,8.792-21.527c5.883-5.689,13.123-8.663,21.657-8.663c9.503,0,17.455,3.62,23.855,10.925l-8.016,9.115
		c-4.073-5.107-9.18-7.628-15.321-7.628c-4.848,0-9.051,1.616-12.541,4.784s-5.172,7.499-5.172,12.8
		c0,5.43,1.616,9.762,4.848,12.994C161.358,206.173,165.301,207.789,170.02,207.789z"/>
	<path style="fill:#194F82;" d="M225.487,198.222l14.739-36.913h13.964l-23.337,57.923h-10.99l-23.337-57.923h13.964
		L225.487,198.222z"/>
	<path style="fill:#194F82;" d="M375.919,268.622l-69.172-49.325c2.457-9.438,3.943-19.265,3.943-29.35
		c0-20.105-5.236-38.853-14.352-55.273V31.563c0-17.39-14.158-31.547-31.547-31.547H84.299c-8.404,0-16.291,3.232-22.238,9.18
		L9.18,62.076C3.232,68.024,0,75.91,0,84.314v276.687c0,17.39,14.158,31.547,31.547,31.547h233.438
		c17.39,0,31.547-14.158,31.547-31.547V309.22l33.487,23.855c17.842,12.735,42.602,8.598,55.273-9.244
		C397.899,306.116,393.697,281.357,375.919,268.622z M367.451,311.288L367.451,311.288c-5.689,8.016-16.873,9.891-24.889,4.202
		l-64.388-45.899c8.339-8.469,15.192-18.295,20.622-29.026l64.453,45.964C371.265,292.088,373.139,303.207,367.451,311.288z
		 M274.618,361.001c0,5.301-4.331,9.632-9.632,9.632H31.547c-5.301,0-9.632-4.331-9.632-9.632V86.706H75.96
		c6.012,0,10.925-4.848,10.925-10.925V21.737h178.166c5.301,0,9.632,4.331,9.632,9.632v75.442
		c-20.299-19.006-47.515-30.772-77.576-30.772c-62.836,0-113.713,50.941-113.713,113.713s50.812,113.842,113.648,113.842
		c23.725,0,45.77-7.24,63.935-19.717l13.705,9.762L274.618,361.001L274.618,361.001z M64.905,37.252v27.669H37.236L64.905,37.252z
		 M197.042,281.809c-50.683,0-91.927-41.244-91.927-91.927s41.244-91.927,91.927-91.927s91.927,41.244,91.927,91.927
		S247.725,281.809,197.042,281.809z"/>
</g>
<path style="fill:#FFC10D;" d="M43.572,260.024h36.396c6.012,0,10.925,4.848,10.925,10.925c0,6.012-4.848,10.925-10.925,10.925
	H43.572v21.851h14.61c6.012,0,10.925,4.848,10.925,10.925c0,6.012-4.848,10.925-10.925,10.925h-14.61v12.541
	c0,6.012,4.848,10.925,10.925,10.925h187.41c6.012,0,10.925-4.848,10.925-10.925v-49.002c-16.485,9.244-35.491,14.675-55.79,14.675
	c-62.836,0-113.713-50.941-113.713-113.713S134.271,76.298,197.042,76.298c20.299,0,39.24,5.495,55.79,14.804V54.642
	c0-6.012-4.848-10.925-10.925-10.925H93.867c-2.715,0-5.236,1.034-7.176,2.78V75.91c0,6.012-4.848,10.925-10.925,10.925H46.352
	c-1.745,2.004-2.78,4.59-2.78,7.176C43.572,94.012,43.572,260.024,43.572,260.024z"/>
<g>
</g>
<g>
</g>
<g>
</g>
<g>
</g>
<g>
</g>
<g>
</g>
<g>
</g>
<g>
</g>
<g>
</g>
<g>
</g>
<g>
</g>
<g>
</g>
<g>
</g>
<g>
</g>
<g>
</g>
</svg>
